<?xml version="1.0" encoding="UTF-8" standalone="no"?>
<!-- Created with Inkscape (http://www.inkscape.org/) -->

<svg
   width="611.41852"
   height="122.52321"
   viewBox="0 0 161.77061 32.417603"
   version="1.1"
   id="svg1"
   xml:space="preserve"
   inkscape:export-filename="aucad idea 2.svg"
   inkscape:export-xdpi="96"
   inkscape:export-ydpi="96"
   sodipodi:docname="aucad horizontal.svg"
   inkscape:version="1.3.2 (091e20e, 2023-11-25, custom)"
   xmlns:inkscape="http://www.inkscape.org/namespaces/inkscape"
   xmlns:sodipodi="http://sodipodi.sourceforge.net/DTD/sodipodi-0.dtd"
   xmlns="http://www.w3.org/2000/svg"
   xmlns:svg="http://www.w3.org/2000/svg"><sodipodi:namedview
     id="namedview1"
     pagecolor="#ffffff"
     bordercolor="#000000"
     borderopacity="0.25"
     inkscape:showpageshadow="2"
     inkscape:pageopacity="0.0"
     inkscape:pagecheckerboard="0"
     inkscape:deskcolor="#d1d1d1"
     inkscape:document-units="px"
     inkscape:zoom="0.87084606"
     inkscape:cx="260.66605"
     inkscape:cy="95.883766"
     inkscape:window-width="1366"
     inkscape:window-height="715"
     inkscape:window-x="-8"
     inkscape:window-y="-8"
     inkscape:window-maximized="1"
     inkscape:current-layer="layer2" /><defs
     id="defs1" /><g
     inkscape:label="Camada 1"
     inkscape:groupmode="layer"
     id="layer1"
     transform="translate(-11.572456,-11.806548)"><path
       d="M 12.333144,34.09225 20.94302,42.702127 51.077586,12.567561"
       style="fill:none;stroke:#000000;stroke-width:2.15247"
       id="path1" /><path
       d="M 45.351972,16.961262 V 29.472128 H 33.318596 v 2.355929 H 45.351972 V 44.33944 h 2.516126 V 31.828057 H 59.771765 V 29.472128 H 47.868098 V 16.961262 Z"
       style="font-size:65.6321px;font-family:Candara;-inkscape-font-specification:Candara;stroke-width:0.341834"
       id="path4" /></g><g
     inkscape:groupmode="layer"
     id="layer2"
     inkscape:label="Camada 2"><g
       id="g3"
       transform="translate(-11.572456,-11.806548)"><g
         id="text4"
         style="font-size:33.3663px;font-family:Algerian;-inkscape-font-specification:Algerian;stroke-width:0.272007"
         aria-label="AUCAD"><path
           style="-inkscape-font-specification:'Geist Thin'"
           d="m 66.159586,41.170959 h 1.101088 l 2.869502,-7.84108 h 10.877413 l 2.869502,7.84108 h 1.101088 L 76.202842,17.480887 H 74.934923 Z M 70.497205,32.32889 75.568883,18.548609 80.64056,32.32889 Z M 104.8311,32.896117 V 17.447521 h -1.06772 v 15.448596 c 0,4.971579 -2.60257,7.740982 -7.273851,7.740982 -4.671282,0 -7.273853,-2.769403 -7.273853,-7.740982 V 17.447521 h -1.067722 v 15.448596 c 0,5.638905 3.002967,8.808703 8.341575,8.808703 5.338611,0 8.341571,-3.169798 8.341571,-8.808703 z"
           id="path8" /><path
           style="-inkscape-font-specification:'Geist Light'"
           d="m 129.05506,33.22978 -2.43574,-0.166831 c -0.70069,4.137421 -3.2699,6.406329 -6.90682,6.406329 -5.43871,0 -8.14138,-4.404351 -8.14138,-10.109988 0,-5.739004 2.6693,-10.176721 8.14138,-10.176721 3.47009,0 5.97256,2.168809 6.73999,5.872468 l 2.40237,-0.166831 c -1.03435,-4.87148 -4.33762,-7.941179 -9.14236,-7.941179 -6.6399,0 -10.54375,5.271875 -10.54375,12.412263 0,7.107021 3.90385,12.34553 10.54375,12.34553 5.17177,0 8.47504,-3.303263 9.34256,-8.47504 z m 1.46811,7.941179 h 2.4691 l 2.53584,-7.107021 h 10.24346 l 2.53583,7.107021 h 2.46911 l -8.64187,-23.690072 h -3.00297 z m 5.77237,-9.309197 4.33762,-12.34553 4.37098,12.34553 z m 25.05815,-14.380875 h -7.14039 v 23.690072 h 7.34059 c 7.10702,0 11.04424,-4.237519 11.04424,-11.811669 0,-7.607516 -4.03732,-11.878403 -11.24444,-11.878403 z m -4.87148,21.487897 V 19.683063 h 4.87148 c 5.8391,0 8.87544,3.303264 8.87544,9.676227 0,6.30623 -3.03634,9.609494 -8.87544,9.609494 z"
           id="path9" /></g></g></g></svg>
